# xmcd
#
# Track frame offsets:
#	150
#	12845
#	27357
#	44282
#	64195
#	74115
#	90267
#	101780
#	113097
#	127122
#
# Disc length: 1869 seconds
#
# Revision: 0
# Processed by: cddbd v1.5.2PL0 Copyright (c) Steve Scherf et al.
# Submitted via: EasyCDDAExtractor 4.5.0.2
#
DISCID=88074b0a
DTITLE=George Strait - Livin' It Up
DYEAR=1990
DGENRE=Country
TTITLE0=Some Had To Teach You
TTITLE1=Heaven Must Be Wondering Where You Are
TTITLE2=I've Come To Expect It From You
TTITLE3=Lonesome Rodeo Cowboy
TTITLE4=When You're A Man On Your Own
TTITLE5=Drinking Champagne
TTITLE6=We're Supposed To Do That Now And Then
TTITLE7=She Loves Me (She Don't Love You)
TTITLE8=Love Without End, Amen
TTITLE9=Stranger In My Arms
EXTD=
EXTT0=
EXTT1=
EXTT2=
EXTT3=
EXTT4=
EXTT5=
EXTT6=
EXTT7=
EXTT8=
EXTT9=
PLAYORDER=
